<svg width="18" height="18" viewBox="0 0 18 18" fill="none" xmlns="http://www.w3.org/2000/svg">
<g clip-path="url(#clip0_13_1798)">
<path d="M9.70651 1.49316L9.71995 1.49391L9.7319 1.49466L9.79387 1.49839L9.80209 1.49988H9.8103L9.83867 1.5066L9.8775 1.51258L9.88945 1.51706L9.89766 1.5178L9.91931 1.52602L9.95814 1.53647L9.97233 1.54319L9.98353 1.54618L10.0044 1.55663L10.0343 1.56932L10.05 1.57828L10.0664 1.58575L10.0836 1.59695L10.1067 1.60964L10.1321 1.62756L10.1456 1.63578L10.1553 1.64474L10.1732 1.65743L10.2016 1.68282L10.218 1.69551L10.224 1.70298L10.2344 1.71194L10.2613 1.74255L10.2807 1.76271L10.2852 1.76943C10.3748 1.87919 10.4315 2.00986 10.448 2.15247L10.4487 2.16143L10.4502 2.19204L10.4532 2.23983V6.71983H14.1865C14.3174 6.7198 14.446 6.75416 14.5594 6.81947C14.6728 6.88479 14.767 6.97875 14.8326 7.09196C14.8983 7.20517 14.933 7.33365 14.9334 7.46451C14.9337 7.59538 14.8997 7.72403 14.8346 7.83759L14.7898 7.90554L8.81649 16.1189C8.39238 16.7035 7.46651 16.4026 7.46651 15.6798V11.1998H3.73318C3.60232 11.1999 3.47374 11.1655 3.36034 11.1002C3.24694 11.0349 3.1527 10.9409 3.08706 10.8277C3.02141 10.7145 2.98668 10.586 2.98633 10.4551C2.98598 10.3243 3.02003 10.1956 3.08507 10.0821L3.12987 10.0141L9.10321 1.80079L9.11067 1.79108L9.12411 1.77316L9.14876 1.74479L9.16219 1.72836L9.16891 1.72239L9.17862 1.71194L9.20849 1.68506L9.22939 1.66564L9.23537 1.66116C9.32288 1.58954 9.42551 1.53874 9.53553 1.51258L9.54374 1.51183L9.5639 1.5081L9.61915 1.49839L9.62737 1.49764L9.65798 1.49615L9.70651 1.49316Z" fill="#F7A802"/>
</g>
<defs>
<clipPath id="clip0_13_1798">
<rect width="17.92" height="17.92" fill="white"/>
</clipPath>
</defs>
</svg>
