<svg width="11" height="14" viewBox="0 0 11 14" fill="none" xmlns="http://www.w3.org/2000/svg">
<path d="M6.125 12.6875V12.375C6.125 10.6073 6.125 9.72338 6.67419 9.17419C7.22338 8.625 8.10725 8.625 9.875 8.625H10.1875M10.5 7.58944V5.5C10.5 3.14298 10.5 1.96447 9.76775 1.23223C9.03556 0.5 7.857 0.5 5.5 0.5C3.14298 0.5 1.96447 0.5 1.23223 1.23223C0.5 1.96446 0.5 3.14298 0.5 5.5V8.34012C0.5 10.3682 0.5 11.3823 1.05379 12.0692C1.16567 12.2079 1.29207 12.3343 1.43083 12.4462C2.11769 13 3.13176 13 5.15988 13C5.60088 13 5.82131 13 6.02325 12.9287C6.06525 12.9139 6.10638 12.8969 6.14656 12.8777C6.33975 12.7853 6.49562 12.6294 6.80744 12.3176L9.76775 9.35725C10.1291 8.99594 10.3097 8.81531 10.4049 8.58556C10.5 8.35588 10.5 8.10037 10.5 7.58944Z" stroke="#0B1B52" stroke-linecap="round" stroke-linejoin="round"/>
</svg>
